<mxfile host="app.diagrams.net" modified="2023-11-12T19:44:47.359Z" agent="Mozilla/5.0 (Macintosh; Intel Mac OS X 10_15_7) AppleWebKit/537.36 (KHTML, like Gecko) Chrome/119.0.0.0 Safari/537.36" etag="bLPaEYFCYTrHxmh5M_rr" version="22.1.0" type="github">
  <diagram name="Page-1" id="a-rNU_gg4g-xvUidXpeU">
    <mxGraphModel dx="1563" dy="2240" grid="0" gridSize="10" guides="1" tooltips="1" connect="1" arrows="1" fold="1" page="1" pageScale="1" pageWidth="850" pageHeight="1100" math="0" shadow="0">
      <root>
        <mxCell id="0" />
        <mxCell id="1" parent="0" />
        <mxCell id="sZ6ITDRiVsrpTiQxlrXk-5" value="" style="edgeStyle=orthogonalEdgeStyle;rounded=0;orthogonalLoop=1;jettySize=auto;html=1;endArrow=ERmandOne;endFill=0;" parent="1" source="sZ6ITDRiVsrpTiQxlrXk-14" target="sZ6ITDRiVsrpTiQxlrXk-17" edge="1">
          <mxGeometry relative="1" as="geometry">
            <mxPoint x="210" y="210" as="sourcePoint" />
            <mxPoint x="510" y="140" as="targetPoint" />
            <Array as="points">
              <mxPoint x="590" y="-90" />
              <mxPoint x="590" y="-90" />
            </Array>
          </mxGeometry>
        </mxCell>
        <mxCell id="sZ6ITDRiVsrpTiQxlrXk-13" value="ChainLabsTicketFactory" style="swimlane;fontStyle=0;childLayout=stackLayout;horizontal=1;startSize=30;horizontalStack=0;resizeParent=1;resizeParentMax=0;resizeLast=0;collapsible=1;marginBottom=0;whiteSpace=wrap;html=1;" parent="1" vertex="1">
          <mxGeometry x="210" y="-170" width="330" height="554" as="geometry" />
        </mxCell>
        <mxCell id="-8GMsKu9XTsqGDZO2hpJ-2" value="mapping(address =&amp;gt; bool) isChainLabsTicketCollection;" style="text;strokeColor=none;fillColor=none;align=left;verticalAlign=middle;spacingLeft=4;spacingRight=4;overflow=hidden;points=[[0,0.5],[1,0.5]];portConstraint=eastwest;rotatable=0;whiteSpace=wrap;html=1;" vertex="1" parent="sZ6ITDRiVsrpTiQxlrXk-13">
          <mxGeometry y="30" width="330" height="32" as="geometry" />
        </mxCell>
        <mxCell id="sZ6ITDRiVsrpTiQxlrXk-14" value="&lt;div&gt;event TicketTransferred(&lt;/div&gt;&lt;div&gt;&amp;nbsp; &amp;nbsp; &amp;nbsp; &amp;nbsp; address indexed ticketCollectionAddress,&lt;/div&gt;&lt;div&gt;&amp;nbsp; &amp;nbsp; &amp;nbsp; &amp;nbsp; address indexed fromAddress,&lt;/div&gt;&lt;div&gt;&amp;nbsp; &amp;nbsp; &amp;nbsp; &amp;nbsp; address indexed toAddress,&lt;/div&gt;&lt;div&gt;&amp;nbsp; &amp;nbsp; &amp;nbsp; &amp;nbsp; uint256 tokenId&lt;/div&gt;&lt;div&gt;);&lt;/div&gt;" style="text;strokeColor=none;fillColor=none;align=left;verticalAlign=middle;spacingLeft=4;spacingRight=4;overflow=hidden;points=[[0,0.5],[1,0.5]];portConstraint=eastwest;rotatable=0;whiteSpace=wrap;html=1;" parent="sZ6ITDRiVsrpTiQxlrXk-13" vertex="1">
          <mxGeometry y="62" width="330" height="100" as="geometry" />
        </mxCell>
        <mxCell id="-8GMsKu9XTsqGDZO2hpJ-1" value="&lt;div&gt;event TicketCollectionCreated(&lt;/div&gt;&lt;div&gt;&amp;nbsp; &amp;nbsp; &amp;nbsp; &amp;nbsp; address ticketCollectionAddress,&lt;/div&gt;&lt;div&gt;&amp;nbsp; &amp;nbsp; &amp;nbsp; &amp;nbsp; string name,&lt;/div&gt;&lt;div&gt;&amp;nbsp; &amp;nbsp; &amp;nbsp; &amp;nbsp; string symbol,&lt;/div&gt;&lt;div&gt;&amp;nbsp; &amp;nbsp; &amp;nbsp; &amp;nbsp; uint256 price,&lt;/div&gt;&lt;div&gt;&amp;nbsp; &amp;nbsp; &amp;nbsp; &amp;nbsp; uint256 showTime,&lt;/div&gt;&lt;div&gt;&amp;nbsp; &amp;nbsp; &amp;nbsp; &amp;nbsp; uint256 maxSupply&lt;/div&gt;&lt;div&gt;)&lt;/div&gt;" style="text;strokeColor=none;fillColor=none;align=left;verticalAlign=middle;spacingLeft=4;spacingRight=4;overflow=hidden;points=[[0,0.5],[1,0.5]];portConstraint=eastwest;rotatable=0;whiteSpace=wrap;html=1;" vertex="1" parent="sZ6ITDRiVsrpTiQxlrXk-13">
          <mxGeometry y="162" width="330" height="147" as="geometry" />
        </mxCell>
        <mxCell id="sZ6ITDRiVsrpTiQxlrXk-49" value="&lt;div&gt;function createTicketCollection(&lt;/div&gt;&lt;div&gt;&amp;nbsp; &amp;nbsp; &amp;nbsp; &amp;nbsp; address owner,&lt;/div&gt;&lt;div&gt;&amp;nbsp; &amp;nbsp; &amp;nbsp; &amp;nbsp; uint256 price,&lt;/div&gt;&lt;div&gt;&amp;nbsp; &amp;nbsp; &amp;nbsp; &amp;nbsp; uint256 showStartTimeStamp,&lt;/div&gt;&lt;div&gt;&amp;nbsp; &amp;nbsp; &amp;nbsp; &amp;nbsp; uint256 maxSupply,&lt;/div&gt;&lt;div&gt;&amp;nbsp; &amp;nbsp; &amp;nbsp; &amp;nbsp; string calldata name,&lt;/div&gt;&lt;div&gt;&amp;nbsp; &amp;nbsp; &amp;nbsp; &amp;nbsp; string calldata symbol,&lt;/div&gt;&lt;div&gt;&amp;nbsp; &amp;nbsp; &amp;nbsp; &amp;nbsp; string calldata baseTokenUri&lt;/div&gt;&lt;div&gt;&lt;span style=&quot;background-color: initial;&quot;&gt;) external;&lt;/span&gt;&lt;/div&gt;" style="text;strokeColor=none;fillColor=none;align=left;verticalAlign=middle;spacingLeft=4;spacingRight=4;overflow=hidden;points=[[0,0.5],[1,0.5]];portConstraint=eastwest;rotatable=0;whiteSpace=wrap;html=1;" parent="sZ6ITDRiVsrpTiQxlrXk-13" vertex="1">
          <mxGeometry y="309" width="330" height="150" as="geometry" />
        </mxCell>
        <mxCell id="-8GMsKu9XTsqGDZO2hpJ-3" value="&lt;div&gt;function logTransfer(&lt;/div&gt;&lt;div&gt;&amp;nbsp; &amp;nbsp; &amp;nbsp; &amp;nbsp; address fromAddress,&lt;/div&gt;&lt;div&gt;&amp;nbsp; &amp;nbsp; &amp;nbsp; &amp;nbsp; address toAddress,&lt;/div&gt;&lt;div&gt;&amp;nbsp; &amp;nbsp; &amp;nbsp; &amp;nbsp; uint256 tokenId&lt;/div&gt;&lt;div&gt;) external&lt;/div&gt;" style="text;strokeColor=none;fillColor=none;align=left;verticalAlign=middle;spacingLeft=4;spacingRight=4;overflow=hidden;points=[[0,0.5],[1,0.5]];portConstraint=eastwest;rotatable=0;whiteSpace=wrap;html=1;" vertex="1" parent="sZ6ITDRiVsrpTiQxlrXk-13">
          <mxGeometry y="459" width="330" height="95" as="geometry" />
        </mxCell>
        <mxCell id="sZ6ITDRiVsrpTiQxlrXk-17" value="ChainLabsTicketCollection&lt;br style=&quot;border-color: var(--border-color); font-weight: 700;&quot;&gt;&lt;span style=&quot;font-weight: 700;&quot;&gt;(extends ERC721)&lt;/span&gt;" style="swimlane;fontStyle=0;childLayout=stackLayout;horizontal=1;startSize=60;horizontalStack=0;resizeParent=1;resizeParentMax=0;resizeLast=0;collapsible=1;marginBottom=0;whiteSpace=wrap;html=1;" parent="1" vertex="1">
          <mxGeometry x="630" y="-170" width="250" height="510" as="geometry" />
        </mxCell>
        <mxCell id="sZ6ITDRiVsrpTiQxlrXk-18" value="owner: address" style="text;strokeColor=none;fillColor=none;align=left;verticalAlign=middle;spacingLeft=4;spacingRight=4;overflow=hidden;points=[[0,0.5],[1,0.5]];portConstraint=eastwest;rotatable=0;whiteSpace=wrap;html=1;" parent="sZ6ITDRiVsrpTiQxlrXk-17" vertex="1">
          <mxGeometry y="60" width="250" height="30" as="geometry" />
        </mxCell>
        <mxCell id="sZ6ITDRiVsrpTiQxlrXk-19" value="price: uint256" style="text;strokeColor=none;fillColor=none;align=left;verticalAlign=middle;spacingLeft=4;spacingRight=4;overflow=hidden;points=[[0,0.5],[1,0.5]];portConstraint=eastwest;rotatable=0;whiteSpace=wrap;html=1;" parent="sZ6ITDRiVsrpTiQxlrXk-17" vertex="1">
          <mxGeometry y="90" width="250" height="30" as="geometry" />
        </mxCell>
        <mxCell id="sZ6ITDRiVsrpTiQxlrXk-20" value="showTime: uint256" style="text;strokeColor=none;fillColor=none;align=left;verticalAlign=middle;spacingLeft=4;spacingRight=4;overflow=hidden;points=[[0,0.5],[1,0.5]];portConstraint=eastwest;rotatable=0;whiteSpace=wrap;html=1;" parent="sZ6ITDRiVsrpTiQxlrXk-17" vertex="1">
          <mxGeometry y="120" width="250" height="30" as="geometry" />
        </mxCell>
        <mxCell id="sZ6ITDRiVsrpTiQxlrXk-22" value="maxSupply: uint256" style="text;strokeColor=none;fillColor=none;align=left;verticalAlign=middle;spacingLeft=4;spacingRight=4;overflow=hidden;points=[[0,0.5],[1,0.5]];portConstraint=eastwest;rotatable=0;whiteSpace=wrap;html=1;" parent="sZ6ITDRiVsrpTiQxlrXk-17" vertex="1">
          <mxGeometry y="150" width="250" height="30" as="geometry" />
        </mxCell>
        <mxCell id="sZ6ITDRiVsrpTiQxlrXk-45" value="baseTokenUri: string" style="text;strokeColor=none;fillColor=none;align=left;verticalAlign=middle;spacingLeft=4;spacingRight=4;overflow=hidden;points=[[0,0.5],[1,0.5]];portConstraint=eastwest;rotatable=0;whiteSpace=wrap;html=1;" parent="sZ6ITDRiVsrpTiQxlrXk-17" vertex="1">
          <mxGeometry y="180" width="250" height="30" as="geometry" />
        </mxCell>
        <mxCell id="sZ6ITDRiVsrpTiQxlrXk-46" value="constructor(&lt;br&gt;&lt;blockquote style=&quot;margin: 0 0 0 40px; border: none; padding: 0px;&quot;&gt;address owner,&lt;br&gt;uint256 price,&lt;br&gt;uint256 showTime,&lt;br&gt;uint256 maxSupply,&lt;span style=&quot;&quot;&gt;&lt;span style=&quot;white-space: pre;&quot;&gt;&amp;nbsp;&amp;nbsp;&amp;nbsp;&amp;nbsp;&lt;/span&gt;&lt;/span&gt;&lt;span style=&quot;&quot;&gt;&lt;span style=&quot;white-space: pre;&quot;&gt;&amp;nbsp;&amp;nbsp;&amp;nbsp;&amp;nbsp;&lt;/span&gt;&lt;/span&gt;&lt;span style=&quot;&quot;&gt;&lt;span style=&quot;white-space: pre;&quot;&gt;&amp;nbsp;&amp;nbsp;&amp;nbsp;&amp;nbsp;&lt;br&gt;&lt;/span&gt;&lt;/span&gt;&lt;span style=&quot;&quot;&gt;string name,&lt;/span&gt;&lt;/blockquote&gt;&lt;span style=&quot;&quot;&gt;&lt;/span&gt;&lt;blockquote style=&quot;margin: 0 0 0 40px; border: none; padding: 0px;&quot;&gt;&lt;/blockquote&gt;&lt;span style=&quot;background-color: initial; border-color: var(--border-color);&quot;&gt;&lt;span style=&quot;white-space: pre;&quot;&gt;&amp;nbsp;&amp;nbsp;&amp;nbsp;&amp;nbsp;&#x9;&lt;/span&gt;&amp;nbsp; &amp;nbsp;&amp;nbsp;&lt;/span&gt;&lt;span style=&quot;background-color: initial;&quot;&gt;string symbol,&lt;/span&gt;&lt;br&gt;&lt;span style=&quot;&quot;&gt;&lt;span style=&quot;white-space: pre;&quot;&gt;&amp;nbsp;&lt;span style=&quot;white-space: pre;&quot;&gt;&#x9;&lt;/span&gt;    &lt;/span&gt;&lt;/span&gt;string baseTokenUri,&lt;span style=&quot;&quot;&gt;&lt;span style=&quot;white-space: pre;&quot;&gt;&amp;nbsp;&amp;nbsp;&amp;nbsp;&amp;nbsp;&lt;br&gt;&lt;/span&gt;&lt;/span&gt;)" style="text;strokeColor=none;fillColor=none;align=left;verticalAlign=middle;spacingLeft=4;spacingRight=4;overflow=hidden;points=[[0,0.5],[1,0.5]];portConstraint=eastwest;rotatable=0;whiteSpace=wrap;html=1;" parent="sZ6ITDRiVsrpTiQxlrXk-17" vertex="1">
          <mxGeometry y="210" width="250" height="150" as="geometry" />
        </mxCell>
        <mxCell id="sZ6ITDRiVsrpTiQxlrXk-21" value="mintTicket(&lt;br&gt;&lt;span style=&quot;white-space: pre;&quot;&gt;&#x9;&lt;/span&gt;address to&lt;br&gt;) payable" style="text;strokeColor=none;fillColor=none;align=left;verticalAlign=middle;spacingLeft=4;spacingRight=4;overflow=hidden;points=[[0,0.5],[1,0.5]];portConstraint=eastwest;rotatable=0;whiteSpace=wrap;html=1;" parent="sZ6ITDRiVsrpTiQxlrXk-17" vertex="1">
          <mxGeometry y="360" width="250" height="70" as="geometry" />
        </mxCell>
        <mxCell id="sZ6ITDRiVsrpTiQxlrXk-26" value="signedTransferFrom(&lt;br&gt;&lt;span style=&quot;white-space: pre;&quot;&gt;&#x9;&lt;/span&gt;address to,&lt;br&gt;&lt;span style=&quot;white-space: pre;&quot;&gt;&#x9;&lt;/span&gt;uint256 tokenId,&lt;br&gt;&lt;span style=&quot;white-space: pre;&quot;&gt;&#x9;&lt;/span&gt;bytes signature&lt;br&gt;)" style="text;strokeColor=none;fillColor=none;align=left;verticalAlign=middle;spacingLeft=4;spacingRight=4;overflow=hidden;points=[[0,0.5],[1,0.5]];portConstraint=eastwest;rotatable=0;whiteSpace=wrap;html=1;" parent="sZ6ITDRiVsrpTiQxlrXk-17" vertex="1">
          <mxGeometry y="430" width="250" height="80" as="geometry" />
        </mxCell>
        <mxCell id="sZ6ITDRiVsrpTiQxlrXk-23" value="ChainLabsTicketMarketPlace" style="swimlane;fontStyle=0;childLayout=stackLayout;horizontal=1;startSize=30;horizontalStack=0;resizeParent=1;resizeParentMax=0;resizeLast=0;collapsible=1;marginBottom=0;whiteSpace=wrap;html=1;" parent="1" vertex="1">
          <mxGeometry x="995" y="-351" width="330" height="1054" as="geometry" />
        </mxCell>
        <mxCell id="sZ6ITDRiVsrpTiQxlrXk-27" value="mapping(address =&amp;gt; Pool) ticketPools;" style="text;strokeColor=none;fillColor=none;align=left;verticalAlign=middle;spacingLeft=4;spacingRight=4;overflow=hidden;points=[[0,0.5],[1,0.5]];portConstraint=eastwest;rotatable=0;whiteSpace=wrap;html=1;" parent="sZ6ITDRiVsrpTiQxlrXk-23" vertex="1">
          <mxGeometry y="30" width="330" height="40" as="geometry" />
        </mxCell>
        <mxCell id="sZ6ITDRiVsrpTiQxlrXk-28" value="&lt;div&gt;struct Pool {&lt;/div&gt;&lt;div&gt;&amp;nbsp; &amp;nbsp; &amp;nbsp; &amp;nbsp; uint256 headTicketSaleId;&lt;/div&gt;&lt;div&gt;&amp;nbsp; &amp;nbsp; &amp;nbsp; &amp;nbsp; uint256 lastTicketSaleId;&lt;/div&gt;&lt;div&gt;&amp;nbsp; &amp;nbsp; &amp;nbsp; &amp;nbsp; mapping(uint256 =&amp;gt; uint256) prevTicketSaleId;&lt;/div&gt;&lt;div&gt;&amp;nbsp; &amp;nbsp; &amp;nbsp; &amp;nbsp; uint256 numberOfSales;&lt;/div&gt;&lt;div&gt;&amp;nbsp; &amp;nbsp; &amp;nbsp; &amp;nbsp; Auction auction;&lt;/div&gt;&lt;div&gt;&amp;nbsp; &amp;nbsp; }&lt;/div&gt;" style="text;strokeColor=none;fillColor=none;align=left;verticalAlign=middle;spacingLeft=4;spacingRight=4;overflow=hidden;points=[[0,0.5],[1,0.5]];portConstraint=eastwest;rotatable=0;whiteSpace=wrap;html=1;" parent="sZ6ITDRiVsrpTiQxlrXk-23" vertex="1">
          <mxGeometry y="70" width="330" height="117" as="geometry" />
        </mxCell>
        <mxCell id="sZ6ITDRiVsrpTiQxlrXk-48" value="&lt;div&gt;struct TicketSale {&lt;/div&gt;&lt;div&gt;&amp;nbsp; &amp;nbsp; &amp;nbsp; &amp;nbsp; uint256 saleId;&lt;/div&gt;&lt;div&gt;&amp;nbsp; &amp;nbsp; &amp;nbsp; &amp;nbsp; uint256 ticketId;&lt;/div&gt;&lt;div&gt;&amp;nbsp; &amp;nbsp; &amp;nbsp; &amp;nbsp; address ticketOwner;&lt;/div&gt;&lt;div&gt;}&lt;/div&gt;&lt;div&gt;&lt;br&gt;&lt;/div&gt;" style="text;strokeColor=none;fillColor=none;align=left;verticalAlign=middle;spacingLeft=4;spacingRight=4;overflow=hidden;points=[[0,0.5],[1,0.5]];portConstraint=eastwest;rotatable=0;whiteSpace=wrap;html=1;" parent="sZ6ITDRiVsrpTiQxlrXk-23" vertex="1">
          <mxGeometry y="187" width="330" height="80" as="geometry" />
        </mxCell>
        <mxCell id="sZ6ITDRiVsrpTiQxlrXk-36" value="&lt;div&gt;struct Auction {&lt;/div&gt;&lt;div&gt;&amp;nbsp; &amp;nbsp; &amp;nbsp; &amp;nbsp; uint256 currentHighestBidId;&lt;/div&gt;&lt;div&gt;&amp;nbsp; &amp;nbsp; &amp;nbsp; &amp;nbsp; mapping(uint256 =&amp;gt; uint256) prevHighestBidId;&lt;/div&gt;&lt;div&gt;&amp;nbsp; &amp;nbsp; &amp;nbsp; &amp;nbsp; uint256 prevAuctionPayoutTimeStamp;&lt;/div&gt;&lt;div&gt;&amp;nbsp; &amp;nbsp; &amp;nbsp; &amp;nbsp; uint256 awaitPayoutClaimBidId;&lt;/div&gt;&lt;div&gt;&amp;nbsp; &amp;nbsp; }&lt;/div&gt;" style="text;strokeColor=none;fillColor=none;align=left;verticalAlign=middle;spacingLeft=4;spacingRight=4;overflow=hidden;points=[[0,0.5],[1,0.5]];portConstraint=eastwest;rotatable=0;whiteSpace=wrap;html=1;" parent="sZ6ITDRiVsrpTiQxlrXk-23" vertex="1">
          <mxGeometry y="267" width="330" height="110" as="geometry" />
        </mxCell>
        <mxCell id="sZ6ITDRiVsrpTiQxlrXk-44" value="&lt;div&gt;struct Bid {&lt;/div&gt;&lt;div&gt;&amp;nbsp; &amp;nbsp; &amp;nbsp; &amp;nbsp; uint256 bidId;&lt;/div&gt;&lt;div&gt;&amp;nbsp; &amp;nbsp; &amp;nbsp; &amp;nbsp; uint256 bidAmount;&lt;/div&gt;&lt;div&gt;&amp;nbsp; &amp;nbsp; &amp;nbsp; &amp;nbsp; uint256 quantity;&lt;/div&gt;&lt;div&gt;&amp;nbsp; &amp;nbsp; &amp;nbsp; &amp;nbsp; address bidAddress;&lt;/div&gt;&lt;div&gt;&amp;nbsp; &amp;nbsp; }&lt;/div&gt;" style="text;strokeColor=none;fillColor=none;align=left;verticalAlign=middle;spacingLeft=4;spacingRight=4;overflow=hidden;points=[[0,0.5],[1,0.5]];portConstraint=eastwest;rotatable=0;whiteSpace=wrap;html=1;" parent="sZ6ITDRiVsrpTiQxlrXk-23" vertex="1">
          <mxGeometry y="377" width="330" height="99" as="geometry" />
        </mxCell>
        <mxCell id="sZ6ITDRiVsrpTiQxlrXk-51" value="&lt;div&gt;event SaleAdded(&lt;/div&gt;&lt;div&gt;&amp;nbsp; &amp;nbsp; &amp;nbsp; &amp;nbsp; address indexed ticketCollectionAddress,&lt;/div&gt;&lt;div&gt;&amp;nbsp; &amp;nbsp; &amp;nbsp; &amp;nbsp; address indexed ticketSeller,&lt;/div&gt;&lt;div&gt;&amp;nbsp; &amp;nbsp; &amp;nbsp; &amp;nbsp; uint256 ticketId,&lt;/div&gt;&lt;div&gt;&amp;nbsp; &amp;nbsp; &amp;nbsp; &amp;nbsp; uint256 saleId&lt;/div&gt;&lt;div&gt;&amp;nbsp; &amp;nbsp; )&lt;/div&gt;" style="text;strokeColor=none;fillColor=none;align=left;verticalAlign=middle;spacingLeft=4;spacingRight=4;overflow=hidden;points=[[0,0.5],[1,0.5]];portConstraint=eastwest;rotatable=0;whiteSpace=wrap;html=1;" parent="sZ6ITDRiVsrpTiQxlrXk-23" vertex="1">
          <mxGeometry y="476" width="330" height="99" as="geometry" />
        </mxCell>
        <mxCell id="sZ6ITDRiVsrpTiQxlrXk-52" value="&lt;div&gt;event SaleFulfilled(&lt;/div&gt;&lt;div&gt;&amp;nbsp; &amp;nbsp; &amp;nbsp; &amp;nbsp; address indexed ticketCollectionAddress,&lt;/div&gt;&lt;div&gt;&amp;nbsp; &amp;nbsp; &amp;nbsp; &amp;nbsp; address indexed seller,&lt;/div&gt;&lt;div&gt;&amp;nbsp; &amp;nbsp; &amp;nbsp; &amp;nbsp; address indexed buyer,&lt;/div&gt;&lt;div&gt;&amp;nbsp; &amp;nbsp; &amp;nbsp; &amp;nbsp; uint256 ticketId,&lt;/div&gt;&lt;div&gt;&amp;nbsp; &amp;nbsp; &amp;nbsp; &amp;nbsp; uint256 amountPaid&lt;/div&gt;&lt;div&gt;&amp;nbsp; &amp;nbsp; )&lt;/div&gt;" style="text;strokeColor=none;fillColor=none;align=left;verticalAlign=middle;spacingLeft=4;spacingRight=4;overflow=hidden;points=[[0,0.5],[1,0.5]];portConstraint=eastwest;rotatable=0;whiteSpace=wrap;html=1;" parent="sZ6ITDRiVsrpTiQxlrXk-23" vertex="1">
          <mxGeometry y="575" width="330" height="116" as="geometry" />
        </mxCell>
        <mxCell id="sZ6ITDRiVsrpTiQxlrXk-53" value="&lt;div&gt;event BidPlaced(&lt;/div&gt;&lt;div&gt;&amp;nbsp; &amp;nbsp; &amp;nbsp; &amp;nbsp; address indexed ticketCollectionAddress,&lt;/div&gt;&lt;div&gt;&amp;nbsp; &amp;nbsp; &amp;nbsp; &amp;nbsp; address indexed bidPlacerAddress,&lt;/div&gt;&lt;div&gt;&amp;nbsp; &amp;nbsp; &amp;nbsp; &amp;nbsp; uint256 bidId,&lt;/div&gt;&lt;div&gt;&amp;nbsp; &amp;nbsp; &amp;nbsp; &amp;nbsp; uint256 quantity,&lt;/div&gt;&lt;div&gt;&amp;nbsp; &amp;nbsp; &amp;nbsp; &amp;nbsp; uint256 bidAmount&lt;/div&gt;&lt;div&gt;&amp;nbsp; &amp;nbsp; )&lt;/div&gt;" style="text;strokeColor=none;fillColor=none;align=left;verticalAlign=middle;spacingLeft=4;spacingRight=4;overflow=hidden;points=[[0,0.5],[1,0.5]];portConstraint=eastwest;rotatable=0;whiteSpace=wrap;html=1;" parent="sZ6ITDRiVsrpTiQxlrXk-23" vertex="1">
          <mxGeometry y="691" width="330" height="110" as="geometry" />
        </mxCell>
        <mxCell id="sZ6ITDRiVsrpTiQxlrXk-35" value="placeBid{&lt;br&gt;&lt;span style=&quot;white-space: pre;&quot;&gt;&#x9;&lt;/span&gt;address showTicketAddress,&lt;br&gt;&lt;span style=&quot;white-space: pre;&quot;&gt;&#x9;&lt;/span&gt;uint256 bidAmount,&lt;br&gt;&lt;span style=&quot;white-space: pre;&quot;&gt;&#x9;&lt;/span&gt;uint256 quantity&lt;br&gt;}" style="text;strokeColor=none;fillColor=none;align=left;verticalAlign=middle;spacingLeft=4;spacingRight=4;overflow=hidden;points=[[0,0.5],[1,0.5]];portConstraint=eastwest;rotatable=0;whiteSpace=wrap;html=1;" parent="sZ6ITDRiVsrpTiQxlrXk-23" vertex="1">
          <mxGeometry y="801" width="330" height="80" as="geometry" />
        </mxCell>
        <mxCell id="sZ6ITDRiVsrpTiQxlrXk-54" value="claimBid{&lt;br&gt;&lt;span style=&quot;white-space: pre;&quot;&gt;&#x9;&lt;/span&gt;address showTicketAddress&lt;br&gt;}" style="text;strokeColor=none;fillColor=none;align=left;verticalAlign=middle;spacingLeft=4;spacingRight=4;overflow=hidden;points=[[0,0.5],[1,0.5]];portConstraint=eastwest;rotatable=0;whiteSpace=wrap;html=1;" parent="sZ6ITDRiVsrpTiQxlrXk-23" vertex="1">
          <mxGeometry y="881" width="330" height="57" as="geometry" />
        </mxCell>
        <mxCell id="-8GMsKu9XTsqGDZO2hpJ-6" value="&lt;div&gt;function onERC721Received(&lt;/div&gt;&lt;div&gt;&lt;span style=&quot;white-space: pre;&quot;&gt;&#x9;&lt;/span&gt;address operator,&lt;br&gt;&lt;/div&gt;&lt;div&gt;&lt;/div&gt;&lt;div&gt;&amp;nbsp; &amp;nbsp; &amp;nbsp; &amp;nbsp; address from,&lt;/div&gt;&lt;div&gt;&amp;nbsp; &amp;nbsp; &amp;nbsp; &amp;nbsp; uint256 tokenId,&lt;/div&gt;&lt;div&gt;&amp;nbsp; &amp;nbsp; &amp;nbsp; &amp;nbsp; bytes calldata data&lt;/div&gt;&lt;div&gt;) external&amp;nbsp;&lt;/div&gt;" style="text;strokeColor=none;fillColor=none;align=left;verticalAlign=middle;spacingLeft=4;spacingRight=4;overflow=hidden;points=[[0,0.5],[1,0.5]];portConstraint=eastwest;rotatable=0;whiteSpace=wrap;html=1;" vertex="1" parent="sZ6ITDRiVsrpTiQxlrXk-23">
          <mxGeometry y="938" width="330" height="116" as="geometry" />
        </mxCell>
        <mxCell id="-8GMsKu9XTsqGDZO2hpJ-4" value="" style="edgeStyle=orthogonalEdgeStyle;rounded=0;orthogonalLoop=1;jettySize=auto;html=1;" edge="1" parent="1" source="sZ6ITDRiVsrpTiQxlrXk-21" target="-8GMsKu9XTsqGDZO2hpJ-3">
          <mxGeometry relative="1" as="geometry" />
        </mxCell>
        <mxCell id="-8GMsKu9XTsqGDZO2hpJ-5" value="" style="edgeStyle=orthogonalEdgeStyle;rounded=0;orthogonalLoop=1;jettySize=auto;html=1;" edge="1" parent="1" source="sZ6ITDRiVsrpTiQxlrXk-26" target="-8GMsKu9XTsqGDZO2hpJ-3">
          <mxGeometry relative="1" as="geometry" />
        </mxCell>
      </root>
    </mxGraphModel>
  </diagram>
</mxfile>
